<svg
   version="1.1"
   x="0px"
   y="0px"
   viewBox="0 0 580.3797336879796 239.5556"
   xml:space="preserve"
   id="svg52811"
   xmlns="http://www.w3.org/2000/svg"
   xmlns:svg="http://www.w3.org/2000/svg">
  <defs
     id="defs29" />
  <path
     id="path6041"
     style="fill:#89ff00"
     d="M 161.01856961662213,0.0 V 73.84347665138115 H 234.86209004849917 V 0.0 Z M 253.30468523236243,0.0 V 73.84347665138115 H 327.1473519445697 V 0.0 Z M 345.51851924939814,0.0 V 73.84347665138115 H 419.36121222990295 V 0.0 Z M 385.77693115424927,15.715596094040608 C 388.073349504857,15.715596094040608 390.22632106070046,15.931834530286467 392.3074094203519,16.43414479615296 394.3885109141521,16.93645506201946 396.2538752583843,17.581955131139303 398.04790366262296,18.51489254354641 V 26.552118166970757 C 396.46913082249756,25.475682736619277 394.67577225984587,24.68664043125421 392.8099482204069,24.112515266769222 390.87235481406515,23.53843388278012 388.8624360285229,23.250820541899405 386.92486889047865,23.322591222217053 384.0543656534422,23.322591222217053 381.6146493617563,23.825210140579532 379.60531723485894,24.901645133126056 377.5959675957631,25.90630944535493 376.0174224142163,27.556606043801217 375.01273446051965,29.49420733063224 373.9363209204161,31.503492174594108 373.4336945593693,33.94331529068994 373.4336945593693,36.813765553326384 373.4336945593693,39.68417203546694 373.9363209204161,42.19625135757978 375.01273446051965,44.20557823081769 376.0174224142163,46.214905979665524 377.5963134616806,47.79400279546049 379.53389373387364,48.87043822581198 381.54324337296936,49.94687365616346 383.9110414440665,50.44861127314379 386.70974904590264,50.44861127314379 391.01546449901105,50.44861127314379 394.96286723965534,49.300931841840146 398.6227328174818,47.07624783373852 V 55.041198425532635 H 398.5504468407276 C 396.8281440228958,55.974130146475275 394.8194467131887,56.76417108495145 392.5948239977813,57.266495360576634 390.29846256181827,57.84054084455911 387.92977574665474,58.05559064034172 385.41810183193377,58.05559064034172 382.1170699544724,58.05559064034172 379.10325126415944,57.553161291526415 376.44807801807923,56.62025146083172 373.7928785037015,55.615567885184646 371.5682689224429,54.25196742623031 369.70248866349976,52.45793026589244 367.836651489912,50.6638843494554 366.47343629932146,48.439813268296156 365.46875272367436,45.78463126611678 364.4640997943744,43.129496984677914 364.03340041001564,40.18701073191876 364.03340041001564,36.886021759343386 364.03340041001564,33.65671503048398 364.5355276734093,30.78635320444922 365.54017184661006,28.131128297383874 366.5448685564059,25.54767407063618 368.05180198083514,23.322767657615465 369.91762602027416,21.456981707207895 371.85520191441753,19.59119575680032 374.1517122040666,18.15616829442102 376.80690734039473,17.22323131981887 379.46210685477246,16.218611225890836 382.4758861426392,15.715596094040608 385.77693115424927,15.715596094040608 Z M 181.7578808584651,16.1467521089715 H 197.3297889272092 C 201.9225424454824,16.1467521089715 205.51091447353014,17.07968908357365 208.02257087605273,18.873703915858613 210.53422727857534,20.739490304071143 211.8260583706269,23.32267965881874 211.8260583706269,26.767211305444288 211.8260583706269,28.776584148202875 211.39590624246662,30.427673173624672 210.4629964117719,31.934647751720036 209.53011722742434,33.36985077388784 208.2384174768604,34.51722067708559 206.44438469457216,35.37843075186597 208.8842848643407,36.16778127192206 210.74948722073816,37.46010270552753 212.0411913493517,39.2541621939183 213.33289985601476,40.97644968857653 213.9790737069663,43.12927676878361 213.9790737069663,45.64091303227811 214.05084307386906,48.152639483594115 213.40519896691774,50.30506816128865 212.11346857000672,52.09909656552734 210.82175568529402,53.893138103914794 209.02732012244363,55.25707567268744 206.73093679623264,56.18998550338214 204.36278848116848,57.12291722432479 201.56416844032407,57.62446658517282 198.33487528341837,57.62446658517282 H 181.7578808584651 Z M 274.1154243532403,16.1467521089715 H 289.68734555613315 C 294.2801122085551,16.1467521089715 297.8684229439086,17.07968908357365 300.3801187488775,18.873703915858613 302.8917882855489,20.739490304071143 304.1836018654021,23.32267965881874 304.1836018654021,26.767211305444288 304.1836018654021,28.776584148202875 303.75343660309306,30.427673173624672 302.8205399065471,31.934647751720036 301.88762131975324,33.36985077388784 300.5959741057844,34.51722067708559 298.80192381129774,35.37843075186597 301.2418458713143,36.16778127192206 303.10700006916625,37.46010270552753 304.3987348441269,39.2541621939183 305.69044772883956,40.97644968857653 306.3366084456423,43.12927676878361 306.3366084456423,45.64091303227811 306.2646727128552,48.152639483594115 305.6186739838872,50.30506816128865 304.3987348441269,52.09909656552734 303.10700006916625,53.893138103914794 301.313413847936,55.25707567268744 299.0170655461217,56.18998550338214 296.6488997188592,57.12291722432479 293.85029281216356,57.62446658517282 290.62100403330743,57.62446658517282 H 274.1154243532403 Z M 190.15394674932892,22.892316946473265 V 33.22626475714674 H 196.5406980254937 C 198.76532949700027,33.22626475714674 200.41620443579717,32.723778493686794 201.56439172085308,31.790929080076413 202.712579005909,30.85799210547426 203.28628738007316,29.49420733063224 203.28628738007316,27.84373517239746 203.28628738007316,24.54265732541544 201.06170406711206,22.892316946473265 196.5406980254937,22.892316946473265 Z M 282.44006236506925,22.892316946473265 V 33.22626475714674 H 288.826813641234 C 291.05145386883976,33.22626475714674 292.70230253933914,32.723778493686794 293.850511714643,31.790929080076413 294.9987033777485,30.85799210547426 295.5724117519126,29.49420733063224 295.5724117519126,27.84373517239746 295.5724117519126,24.54265732541544 293.3478371950507,22.892316946473265 288.826813641234,22.892316946473265 Z M 190.15394674932892,39.75673645617497 V 50.95118509759551 H 197.47349840494869 C 199.98516794162003,50.95118509759551 201.92281388455686,50.44874261463144 203.28628738007316,49.51580651563921 204.6497696316886,48.58295797763875 205.29559323867304,47.219878506585424 205.29559323867304,45.42577129745415 205.3674107641213,41.62243440778582 202.78405504348933,39.75673645617497 197.61720350463858,39.75673645617497 Z M 282.44006236506925,39.75673645617497 V 50.95118509759551 H 289.7596096426394 C 292.271266045162,50.95118509759551 294.2089295002972,50.44874261463144 295.5724117519126,49.51580651563921 296.9358852474289,48.58295797763875 297.58171323246296,47.219878506585424 297.58171323246296,45.42577129745415 297.6534782213161,41.62243440778582 295.07017065922963,39.75673645617497 289.9033147423293,39.75673645617497 Z" />
  <path
     style="fill:#89ff00"
     d="M 0.0,110.78001716273015 V 134.91387542124286 H 40.5238342257831 V 239.55559562195043 H 68.26022443812734 V 134.91387542124286 H 108.78406435537491 V 110.78001716273015 Z"
     id="path57058" />
  <path
     style="fill:#89ff00"
     d="M 125.98913377428121,110.78001716273015 V 239.55559562195043 H 153.72552267321058 V 184.2636050037954 H 209.73888890009715 V 239.55559562195043 H 237.47527342097698 V 110.78001716273015 H 209.73888890009715 V 160.1289149158609 H 153.72552267321058 V 110.78001716273015 Z"
     id="path5484" />
  <path
     id="path5486"
     style="fill:#89ff00"
     d="M 258.6727869546931,110.77989019929208 V 239.55541174386767 H 286.04842894558726 V 192.72787215114747 H 305.50036594985966 308.20121976534534 C 317.4466710568562,208.09689264586552 326.39177501245354,223.70610169710287 335.03685998585644,239.55541174386767 H 366.91561930775066 C 361.63248677183185,230.55012274057853 356.3496563213346,221.78564397685014 351.0665237854157,213.2606445256077 345.78337373729846,204.61556393025438 340.44006053173734,196.0300379434522 335.03685998585644,187.50503411416014 342.48124296939045,184.26312779639025 348.1850404000115,179.64061667506465 352.1473722897523,173.63708483547242 356.22974154310805,167.63356175197936 358.27049930995105,160.36958505783485 358.27049930995105,151.8445856065924 358.27049930995105,138.63683307168785 353.7085191022348,128.4902959919404 344.58310955238846,121.40613892854057 335.5778205490993,114.32198186514076 322.6100420462841,110.77989019929208 305.68008050741423,110.77989019929208 Z M 286.04842894558726,132.57323001369306 H 304.23894479024915 C 312.7639792658883,132.57323001369306 319.1886181831912,134.13339614306776 323.51116285891743,137.25522131672682 327.9537843007049,140.37707275868334 330.1742960275488,145.24069620499137 330.1742960275488,151.8445856065924 330.1742960275488,158.4484531179455 327.9537843007049,163.31041728345951 323.51116285891743,166.4322599693169 319.0685414171299,169.4340346452122 312.58422968393705,170.93538167836664 304.05922585464504,170.93538167836664 H 286.04842894558726 Z" />
  <path
     style="fill:#89ff00"
     d="M 379.83616303355643,110.78001716273015 V 239.55559562195043 H 471.8704751272195 V 216.50207363597244 H 407.57253879833706 V 184.8033572253519 H 461.60438664736137 V 161.74982648327475 H 407.57253879833706 V 133.8335435267577 H 468.4486353494156 V 110.78001716273015 Z"
     id="path5488" />
  <path
     style="fill:#89ff00"
     d="M 488.34546975286213,110.78001716273015 V 239.55559562195043 H 580.3797336879796 V 216.50207363597244 H 516.0818148712955 V 184.8033572253519 H 570.1136014276257 V 161.74982648327475 H 516.0818148712955 V 133.8335435267577 H 576.9571496417457 V 110.78001716273015 Z"
     id="path5490" />
</svg>